<svg width="180" height="49" viewBox="0 0 180 49" fill="none" xmlns="http://www.w3.org/2000/svg">
<path d="M109.054 15.3597H101.295C101.506 16.8472 102.452 17.9789 104.302 17.9789C105.269 17.9789 106.005 17.6855 106.405 17.057H108.802C108.171 18.8378 106.426 19.8852 104.281 19.8852C101.169 19.8852 99.0664 17.6431 99.0664 14.7099C99.0664 11.7768 101.148 9.53467 104.155 9.53467C107.435 9.53467 109.475 12.0277 109.054 15.3591V15.3597ZM101.337 13.851H106.888C106.762 12.2375 105.71 11.3786 104.176 11.3786C102.536 11.3786 101.589 12.4678 101.337 13.851Z" fill="black"/>
<path d="M116.671 9.8291V11.8821C115.094 11.9452 113.895 12.5319 113.013 13.6842V19.8863H110.826V10.0388H113.013V11.3796C113.917 10.3946 115.158 9.8291 116.671 9.8291Z" fill="black"/>
<path d="M125.224 7.45505C125.224 6.67979 125.834 6.11426 126.612 6.11426C127.39 6.11426 127.999 6.67979 127.999 7.45505C127.999 8.23031 127.369 8.79584 126.612 8.79584C125.855 8.79584 125.224 8.23031 125.224 7.45505ZM127.706 9.8289V19.8861H125.54V9.8289H127.706Z" fill="black"/>
<path d="M124.113 9.82894H122.185V7.65234L120 8.12549V9.82894H118.072V11.9125H120V19.8855H122.185V11.9125H124.113V9.82894Z" fill="black"/>
<path d="M95.49 13.5878C94.9895 15.8893 92.9342 17.6139 90.4748 17.6139C87.6402 17.6139 85.3424 15.3244 85.3424 12.4998C85.3424 9.67532 87.6402 7.38574 90.4748 7.38574C92.9342 7.38574 94.9895 9.10979 95.49 11.4119H97.9024C97.3744 7.8489 94.2929 5.11426 90.5707 5.11426C86.4769 5.11426 83.1587 8.42067 83.1587 12.4998C83.1587 16.579 86.4769 19.8854 90.5707 19.8854C94.2929 19.8854 97.3744 17.1508 97.9024 13.5878H95.49Z" fill="black"/>
<path d="M63.6445 17.0171C63.5186 15.9653 63.4979 15.0571 63.5048 14.1563C62.0483 14.1707 60.6458 13.3611 59.9767 11.9647C59.0571 10.0453 59.8734 7.747 61.799 6.83067L58.5259 0C52.8141 2.71778 50.3942 9.53472 53.1217 15.2262C55.4113 20.0045 60.6 22.4701 65.5858 21.5307C64.618 20.1131 63.8663 18.5726 63.6445 17.0171Z" fill="#2756FF"/>
<path d="M71.6106 11.9886C71.6237 10.9737 71.6313 9.95872 71.6356 8.94314H74.3788V4.34275H71.6413C71.6413 3.42267 71.64 2.5026 71.6413 1.58252L65.1333 2.5026C65.1333 3.11619 65.1333 3.72916 65.1333 4.34275H62.4058V8.94314H65.1333C65.1333 9.60729 65.1333 10.2721 65.1333 10.9362C65.194 13.1865 64.9867 14.7769 65.2542 17.0166C65.677 19.9822 68.023 22.8916 70.1278 24.9995L75.1455 21.1913C71.1996 17.6776 71.6106 15.3375 71.6106 11.988V11.9886Z" fill="#FF3EB6"/>
</svg>
