<svg width="180" height="49" viewBox="0 0 180 49" fill="none" xmlns="http://www.w3.org/2000/svg">
<path d="M68.7623 20.0344H65.1157V13.4049C65.1157 11.6162 63.6643 10.1633 61.8775 10.1633C60.0907 10.1633 58.6393 11.6162 58.6393 13.4049V20.0344H55V13.4049C55 9.60837 58.085 6.5127 61.8848 6.5127C65.6845 6.5127 68.7696 9.60107 68.7696 13.4049V20.0344H68.7623Z" fill="black"/>
<path d="M74.2906 20.0343H70.644V6.89225C70.644 3.08837 73.7291 0 77.5288 0V3.65056C75.742 3.65056 74.2906 5.10348 74.2906 6.89225V7.32302C75.2533 6.80464 76.3546 6.51259 77.5288 6.51259V10.1631C75.742 10.1631 74.2906 11.6161 74.2906 13.4048V20.0343Z" fill="black"/>
<path d="M91.5754 2.00781H87.9288V19.8517H91.5754V2.00781Z" fill="black"/>
<path d="M86.1712 19.9392C82.3787 19.9392 79.2864 16.8509 79.2864 13.047V2.27783H82.933V13.047C82.933 14.8357 84.3843 16.2887 86.1712 16.2887V19.9392Z" fill="black"/>
<path d="M86.1711 6.16211H81.7515V9.81267H86.1711V6.16211Z" fill="black"/>
<path d="M103.544 20.0344H99.8972V13.4049C99.8972 11.3971 98.9564 10.1633 98.4458 10.1633C97.9353 10.1633 96.9945 11.3898 96.9945 13.4049V20.0344H93.3479V13.4049C93.3479 9.54266 95.5869 6.5127 98.4458 6.5127C101.305 6.5127 103.544 9.54266 103.544 13.4049V20.0344Z" fill="black"/>
<path d="M110.093 19.9396H106.446V13.3102C106.446 11.3024 105.505 10.0685 104.995 10.0685C104.484 10.0685 103.544 11.2951 103.544 13.3102V19.9396H99.897V13.3102C99.897 9.44793 102.136 6.41797 104.995 6.41797C107.854 6.41797 110.093 9.44063 110.093 13.3102V19.9396Z" fill="black"/>
<path d="M118.13 20.3774C116.387 20.3774 114.724 19.7276 113.44 18.5302C112.098 17.2744 111.318 15.5733 111.252 13.7334C111.187 11.8935 111.843 10.1413 113.097 8.79785C114.352 7.45445 116.051 6.67323 117.889 6.60752C119.705 6.54181 121.477 7.19891 122.819 8.4547C124.161 9.71049 124.942 11.4117 125 13.2515V15.3177H115.446C115.577 15.5149 115.738 15.6974 115.913 15.858C116.547 16.4494 117.357 16.7415 118.232 16.7269C119.202 16.6904 120.092 16.2304 120.682 15.4638L123.57 17.6906C122.316 19.3261 120.413 20.3044 118.349 20.3774C118.268 20.3774 118.181 20.3774 118.101 20.3774H118.13ZM115.46 11.6672H120.806C120.675 11.4701 120.515 11.2875 120.34 11.1196C119.705 10.5282 118.888 10.2143 118.02 10.2508C117.16 10.28 116.358 10.645 115.767 11.2802C115.657 11.4044 115.548 11.5285 115.46 11.6672Z" fill="black"/>
</svg>
