<svg width="86" height="26" viewBox="0 0 86 26" fill="none" xmlns="http://www.w3.org/2000/svg">
<path d="M16.9079 24.6138H12.4278V16.4691C12.4278 14.2714 10.6447 12.4864 8.44946 12.4864C6.25422 12.4864 4.47114 14.2714 4.47114 16.4691V24.6138H0V16.4691C0 11.8047 3.79016 8.00146 8.45842 8.00146C13.1267 8.00146 16.9168 11.7957 16.9168 16.4691V24.6138H16.9079Z" fill="black"/>
<path d="M23.6997 24.6135H19.2196V8.4676C19.2196 3.79428 23.0098 0 27.678 0V4.48496C25.4828 4.48496 23.6997 6.26997 23.6997 8.4676V8.99683C24.8824 8.35997 26.2354 8.00117 27.678 8.00117V12.4861C25.4828 12.4861 23.6997 14.2711 23.6997 16.4688V24.6135Z" fill="black"/>
<path d="M44.9356 2.4668H40.4555V24.3893H44.9356V2.4668Z" fill="black"/>
<path d="M38.2959 24.4971C33.6366 24.4971 29.8375 20.7028 29.8375 16.0295V2.79883H34.3176V16.0295C34.3176 18.2271 36.1006 20.0121 38.2959 20.0121V24.4971Z" fill="black"/>
<path d="M38.2959 7.5708H32.866V12.0558H38.2959V7.5708Z" fill="black"/>
<path d="M59.6393 24.6138H55.1592V16.4691C55.1592 14.0023 54.0034 12.4864 53.3762 12.4864C52.7489 12.4864 51.5931 13.9934 51.5931 16.4691V24.6138H47.113V16.4691C47.113 11.724 49.8638 8.00146 53.3762 8.00146C56.8885 8.00146 59.6393 11.724 59.6393 16.4691V24.6138Z" fill="black"/>
<path d="M67.6855 24.4971H63.2054V16.3524C63.2054 13.8856 62.0496 12.3697 61.4224 12.3697C60.7951 12.3697 59.6393 13.8767 59.6393 16.3524V24.4971H55.1592V16.3524C55.1592 11.6073 57.91 7.88477 61.4224 7.88477C64.9348 7.88477 67.6855 11.5983 67.6855 16.3524V24.4971Z" fill="black"/>
<path d="M77.5595 25.0356C75.418 25.0356 73.3751 24.2373 71.7981 22.7662C70.1494 21.2234 69.1906 19.1334 69.11 16.873C69.0294 14.6125 69.8358 12.4598 71.3769 10.8093C72.9181 9.15882 75.0058 8.19904 77.2638 8.11831C79.4949 8.03758 81.6722 8.84488 83.3209 10.3877C84.9696 11.9305 85.9283 14.0205 86 16.2809V18.8194H74.2621C74.4234 19.0616 74.6205 19.2859 74.8356 19.4832C75.6151 20.2098 76.6097 20.5686 77.6849 20.5506C78.8766 20.5058 79.9698 19.9407 80.6955 18.9988L84.2438 21.7347C82.7026 23.7439 80.364 24.9459 77.8283 25.0356C77.7297 25.0356 77.6222 25.0356 77.5236 25.0356H77.5595ZM74.28 14.3345H80.8479C80.6866 14.0923 80.4895 13.868 80.2744 13.6617C79.4949 12.9352 78.4913 12.5495 77.4251 12.5943C76.3678 12.6302 75.3821 13.0787 74.6564 13.8591C74.522 14.0116 74.3876 14.164 74.28 14.3345Z" fill="black"/>
</svg>
