<svg width="126" height="41" viewBox="0 0 126 41" fill="none" xmlns="http://www.w3.org/2000/svg">
<g id="Layer 1">
<g id="Group">
<g id="Group_2">
<path id="Vector" d="M94.2226 25.2043H81.5086C81.8535 27.6417 83.4035 29.4961 86.4357 29.4961C88.0206 29.4961 89.2267 29.0153 89.8816 27.9854H93.809C92.7753 30.9035 89.9155 32.6198 86.4008 32.6198C81.3012 32.6198 77.8563 28.9458 77.8563 24.1395C77.8563 19.3332 81.2673 15.6592 86.1945 15.6592C91.5692 15.6592 94.9114 19.7444 94.2226 25.2032V25.2043ZM81.5773 22.7321H90.673C90.4667 20.088 88.7432 18.6806 86.2284 18.6806C83.541 18.6806 81.99 20.4655 81.5773 22.7321Z" fill="black"/>
<path id="Vector_2" d="M106.704 16.1416V19.5057C104.12 19.609 102.155 20.5705 100.709 22.4586V32.6215H97.1255V16.4853H100.709V18.6823C102.19 17.0683 104.224 16.1416 106.704 16.1416Z" fill="black"/>
<path id="Vector_3" d="M120.719 12.2517C120.719 10.9814 121.718 10.0547 122.993 10.0547C124.268 10.0547 125.267 10.9814 125.267 12.2517C125.267 13.5221 124.233 14.4488 122.993 14.4488C121.753 14.4488 120.719 13.5221 120.719 12.2517ZM124.785 16.1416V32.6215H121.237V16.1416H124.785Z" fill="black"/>
<path id="Vector_4" d="M118.898 16.1413H115.739V12.5747L112.158 13.35V16.1413H108.999V19.5555H112.158V32.6202H115.739V19.5555H118.898V16.1413Z" fill="black"/>
<path id="Vector_5" d="M71.9961 22.301C71.176 26.0722 67.8081 28.8983 63.7781 28.8983C59.1332 28.8983 55.3681 25.1465 55.3681 20.5182C55.3681 15.8899 59.1332 12.1381 63.7781 12.1381C67.8081 12.1381 71.176 14.9632 71.9961 18.7354H75.9491C75.0838 12.8971 70.0345 8.41602 63.9351 8.41602C57.227 8.41602 51.7897 13.834 51.7897 20.5182C51.7897 27.2024 57.227 32.6204 63.9351 32.6204C70.0345 32.6204 75.0838 28.1393 75.9491 22.301H71.9961Z" fill="black"/>
</g>
<g id="Group_3">
<path id="Vector_6" d="M19.8133 27.9201C19.607 26.1967 19.5731 24.7084 19.5844 23.2325C17.1978 23.256 14.8995 21.9294 13.8032 19.6413C12.2964 16.4961 13.6339 12.73 16.7893 11.2285L11.4259 0.0356445C2.06638 4.48906 -1.89894 15.6594 2.57039 24.9856C6.3222 32.8154 14.8246 36.8556 22.9944 35.3162C21.4085 32.9934 20.1767 30.469 19.8133 27.9201Z" fill="#2756FF"/>
<path id="Vector_7" d="M32.8666 19.6801C32.8882 18.017 32.9005 16.3538 32.9077 14.6897H37.4027V7.15139H32.9169C32.9169 5.64373 32.9149 4.13607 32.9169 2.62842L22.2528 4.13607C22.2528 5.14152 22.2528 6.14594 22.2528 7.15139H17.7834V14.6897H22.2528C22.2528 15.778 22.2528 16.8673 22.2528 17.9556C22.3523 21.6429 22.0126 24.2491 22.4509 27.919C23.1438 32.7785 26.988 37.5459 30.437 41L38.6591 34.7597C32.1933 29.0022 32.8666 25.1676 32.8666 19.6791V19.6801Z" fill="#FF3EB6"/>
</g>
</g>
</g>
</svg>
