<svg width="28" height="28" viewBox="0 0 28 28" fill="none" xmlns="http://www.w3.org/2000/svg">
<path d="M22 20.1953C22 20.1953 19.8947 17.248 19.8947 14.7217V11.3532C19.8947 9.78985 19.2737 8.2905 18.1682 7.18502C17.0627 6.07955 15.5634 5.4585 14 5.4585C12.4366 5.4585 10.9373 6.07955 9.83179 7.18502C8.72631 8.2905 8.10526 9.78985 8.10526 11.3532V14.7217C8.10526 17.248 6 20.1953 6 20.1953H22Z" stroke="black" stroke-width="1.5" stroke-linecap="round" stroke-linejoin="round"/>
<path d="M16.1053 20.436C16.1053 20.9944 15.8835 21.5299 15.4887 21.9247C15.0939 22.3195 14.5584 22.5413 14 22.5413C13.4417 22.5413 12.9062 22.3195 12.5114 21.9247C12.1166 21.5299 11.8948 20.9944 11.8948 20.436" stroke="black" stroke-width="1.5" stroke-linecap="round" stroke-linejoin="round"/>
</svg>
