<svg width="20" height="20" viewBox="0 0 20 20" fill="none" xmlns="http://www.w3.org/2000/svg">
<path d="M14.5503 11L16.55 13L14.55 15" stroke="#1C1C1C" stroke-linecap="round" stroke-linejoin="round"/>
<path d="M16.55 13H11.55" stroke="#1C1C1C" stroke-linecap="round" stroke-linejoin="round"/>
<path d="M9.98328 16.5335H4.38328C4.13575 16.5335 3.89835 16.4351 3.72332 16.2601C3.54828 16.0851 3.44995 15.8477 3.44995 15.6001V4.40013C3.44995 4.15259 3.54828 3.9152 3.72332 3.74016C3.89835 3.56513 4.13575 3.4668 4.38328 3.4668H13.7166C13.9642 3.4668 14.2016 3.56513 14.3766 3.74016C14.5516 3.9152 14.65 4.15259 14.65 4.40013V8.13346" stroke="#1C1C1C" stroke-linecap="round" stroke-linejoin="round"/>
<path d="M6.24988 7.2002H10.9165" stroke="#1C1C1C" stroke-linecap="round" stroke-linejoin="round"/>
<path d="M6.24988 10H9.04988" stroke="#1C1C1C" stroke-linecap="round" stroke-linejoin="round"/>
<path d="M6.24988 12.8003H9.04988" stroke="#1C1C1C" stroke-linecap="round" stroke-linejoin="round"/>
</svg>
