<svg width="37" height="36" viewBox="0 0 37 36" fill="none" xmlns="http://www.w3.org/2000/svg">
<g id="warning-sign 1">
<g id="Group">
<g id="Group 606">
<path id="Vector" d="M18.4997 26.9096C18.9974 26.9096 19.4008 26.5062 19.4008 26.0085C19.4008 25.5108 18.9974 25.1074 18.4997 25.1074C18.0021 25.1074 17.5986 25.5108 17.5986 26.0085C17.5986 26.5062 18.0021 26.9096 18.4997 26.9096Z" fill="#FF6E6E"/>
<path id="Vector_2" d="M18.5 11.7041V21.8413" stroke="#FF6E6E" stroke-width="2" stroke-linecap="round" stroke-linejoin="round"/>
</g>
<path id="Vector_3" d="M3.78277 27.5821L16.4117 4.12875C16.6148 3.75178 16.9162 3.43682 17.2838 3.21728C17.6515 2.99775 18.0717 2.88184 18.4999 2.88184C18.9281 2.88184 19.3484 2.99775 19.716 3.21728C20.0837 3.43682 20.3851 3.75178 20.5882 4.12875L33.2171 27.5821C33.4113 27.9434 33.5085 28.3489 33.4992 28.759C33.4899 29.1691 33.3745 29.5698 33.1641 29.9219C32.9537 30.2741 32.6556 30.5656 32.2989 30.7681C31.9421 30.9707 31.539 31.0772 31.1288 31.0774H5.87103C5.46083 31.0772 5.05769 30.9707 4.70097 30.7681C4.34424 30.5656 4.04614 30.2741 3.83575 29.9219C3.62537 29.5698 3.50989 29.1691 3.50061 28.759C3.49132 28.3489 3.58854 27.9434 3.78277 27.5821Z" stroke="#FF6E6E" stroke-width="2" stroke-linecap="round" stroke-linejoin="round"/>
</g>
</g>
</svg>
