<svg width="20" height="20" viewBox="0 0 20 20" fill="none" xmlns="http://www.w3.org/2000/svg">
<path d="M10.0333 16.0667H4.43333C4.1858 16.0667 3.9484 15.9683 3.77337 15.7933C3.59833 15.6183 3.5 15.3809 3.5 15.1333V3.93333C3.5 3.6858 3.59833 3.4484 3.77337 3.27337C3.9484 3.09833 4.1858 3 4.43333 3H13.7667C14.0142 3 14.2516 3.09833 14.4266 3.27337C14.6017 3.4484 14.7 3.6858 14.7 3.93333V7.66667" stroke="#1C1C1C" stroke-linecap="round" stroke-linejoin="round"/>
<path d="M14.6999 13.2665C16.2463 13.2665 17.4999 12.0129 17.4999 10.4665C17.4999 8.92011 16.2463 7.6665 14.6999 7.6665C13.1535 7.6665 11.8999 8.92011 11.8999 10.4665C11.8999 12.0129 13.1535 13.2665 14.6999 13.2665Z" stroke="#1C1C1C" stroke-linecap="round" stroke-linejoin="round"/>
<path d="M16.5667 12.5537V17.0001L14.7 16.0668L12.8334 17.0001V12.5537" stroke="#1C1C1C" stroke-linecap="round" stroke-linejoin="round"/>
<path d="M6.29993 6.7334H10.9666" stroke="#1C1C1C" stroke-linecap="round" stroke-linejoin="round"/>
<path d="M6.29993 9.5332H9.09993" stroke="#1C1C1C" stroke-linecap="round" stroke-linejoin="round"/>
<path d="M6.29993 12.3335H9.09993" stroke="#1C1C1C" stroke-linecap="round" stroke-linejoin="round"/>
</svg>
