<svg width="29" height="28" viewBox="0 0 29 28" fill="none" xmlns="http://www.w3.org/2000/svg">
<path d="M14.1667 22.6667H6.16671C5.81309 22.6667 5.47395 22.5262 5.2239 22.2761C4.97385 22.0261 4.83337 21.687 4.83337 21.3333V5.33333C4.83337 4.97971 4.97385 4.64057 5.2239 4.39052C5.47395 4.14048 5.81309 4 6.16671 4H19.5C19.8537 4 20.1928 4.14048 20.4429 4.39052C20.6929 4.64057 20.8334 4.97971 20.8334 5.33333V10.6667" stroke="#1C1C1C" stroke-width="1.5" stroke-linecap="round" stroke-linejoin="round"/>
<path d="M20.8335 18.6665C23.0426 18.6665 24.8335 16.8756 24.8335 14.6665C24.8335 12.4574 23.0426 10.6665 20.8335 10.6665C18.6244 10.6665 16.8335 12.4574 16.8335 14.6665C16.8335 16.8756 18.6244 18.6665 20.8335 18.6665Z" stroke="#1C1C1C" stroke-width="1.5" stroke-linecap="round" stroke-linejoin="round"/>
<path d="M23.5004 17.6484V24.0004L20.8338 22.6671L18.1671 24.0004V17.6484" stroke="#1C1C1C" stroke-width="1.5" stroke-linecap="round" stroke-linejoin="round"/>
<path d="M8.83301 9.33301H15.4997" stroke="#1C1C1C" stroke-width="1.5" stroke-linecap="round" stroke-linejoin="round"/>
<path d="M8.83301 13.3335H12.833" stroke="#1C1C1C" stroke-width="1.5" stroke-linecap="round" stroke-linejoin="round"/>
<path d="M8.83301 17.3335H12.833" stroke="#1C1C1C" stroke-width="1.5" stroke-linecap="round" stroke-linejoin="round"/>
</svg>
