<svg width="28" height="28" viewBox="0 0 28 28" fill="none" xmlns="http://www.w3.org/2000/svg">
<path d="M20.2684 15.3779L23.0232 18.133L20.2681 20.8881" stroke="#1C1C1C" stroke-width="1.5" stroke-linecap="round" stroke-linejoin="round"/>
<path d="M23.0232 18.1328H16.1354" stroke="#1C1C1C" stroke-width="1.5" stroke-linecap="round" stroke-linejoin="round"/>
<path d="M13.9771 23H6.26277C5.92177 23 5.59475 22.8645 5.35363 22.6234C5.11251 22.3823 4.97705 22.0553 4.97705 21.7143V6.28571C4.97705 5.94472 5.11251 5.6177 5.35363 5.37658C5.59475 5.13546 5.92177 5 6.26277 5H19.1199C19.4609 5 19.7879 5.13546 20.029 5.37658C20.2702 5.6177 20.4056 5.94472 20.4056 6.28571V11.4286" stroke="#1C1C1C" stroke-width="1.5" stroke-linecap="round" stroke-linejoin="round"/>
<path d="M8.83325 10.1426H15.2618" stroke="#1C1C1C" stroke-width="1.5" stroke-linecap="round" stroke-linejoin="round"/>
<path d="M8.83325 14H12.6904" stroke="#1C1C1C" stroke-width="1.5" stroke-linecap="round" stroke-linejoin="round"/>
<path d="M8.83325 17.8569H12.6904" stroke="#1C1C1C" stroke-width="1.5" stroke-linecap="round" stroke-linejoin="round"/>
</svg>
